<?xml version="1.0" encoding="UTF-8" standalone="no"?>
<svg
   xmlns:dc="http://purl.org/dc/elements/1.1/"
   xmlns:cc="http://creativecommons.org/ns#"
   xmlns:rdf="http://www.w3.org/1999/02/22-rdf-syntax-ns#"
   xmlns:svg="http://www.w3.org/2000/svg"
   xmlns="http://www.w3.org/2000/svg"
   xmlns:sodipodi="http://sodipodi.sourceforge.net/DTD/sodipodi-0.dtd"
   xmlns:inkscape="http://www.inkscape.org/namespaces/inkscape"
   height="64"
   id="Layer_1"
   version="1.1"
   viewBox="0 0 64 64"
   width="64"
   xml:space="preserve"
   sodipodi:docname="Hamburger_icon.svg"
   inkscape:version="0.92.4 (5da689c313, 2019-01-14)"
   inkscape:export-filename="D:\Files\Godot Projects\FineMaze 2\assets\menu_icon.png"
   inkscape:export-xdpi="768"
   inkscape:export-ydpi="768"><metadata
     id="metadata9"><rdf:RDF><cc:Work
         rdf:about=""><dc:format>image/svg+xml</dc:format><dc:type
           rdf:resource="http://purl.org/dc/dcmitype/StillImage" /><dc:title></dc:title></cc:Work></rdf:RDF></metadata><defs
     id="defs7" /><sodipodi:namedview
     pagecolor="#ffffff"
     bordercolor="#666666"
     borderopacity="1"
     objecttolerance="10"
     gridtolerance="10"
     guidetolerance="10"
     inkscape:pageopacity="0"
     inkscape:pageshadow="2"
     inkscape:window-width="1920"
     inkscape:window-height="1001"
     id="namedview5"
     showgrid="false"
     inkscape:zoom="7.375"
     inkscape:cx="39.152542"
     inkscape:cy="27.220339"
     inkscape:window-x="-9"
     inkscape:window-y="-9"
     inkscape:window-maximized="1"
     inkscape:current-layer="Layer_1" /><path
     d="m 7.331719,19.572881 h 49.336562 c 2.269482,0 4.11138,-1.855783 4.11138,-4.142373 0,-2.286589 -1.841898,-4.142372 -4.11138,-4.142372 H 7.331719 c -2.2694821,0 -4.1113801,1.855783 -4.1113801,4.142372 0,2.28659 1.841898,4.142373 4.1113801,4.142373 z m 49.336562,8.284746 H 7.331719 c -2.2694821,0 -4.1113801,1.855783 -4.1113801,4.142373 0,2.28659 1.841898,4.142373 4.1113801,4.142373 h 49.336562 c 2.269482,0 4.11138,-1.855783 4.11138,-4.142373 0,-2.28659 -1.841898,-4.142373 -4.11138,-4.142373 z m 0,16.569492 H 7.331719 c -2.2694821,0 -4.1113801,1.855783 -4.1113801,4.142373 0,2.286589 1.841898,4.142372 4.1113801,4.142372 h 49.336562 c 2.269482,0 4.11138,-1.855783 4.11138,-4.142372 0,-2.28659 -1.841898,-4.142373 -4.11138,-4.142373 z"
     id="path2"
     inkscape:connector-curvature="0"
     style="stroke-width:2.063;fill:#ffffff;fill-opacity:1;stroke:#000000;stroke-opacity:1;stroke-miterlimit:4;stroke-dasharray:none;paint-order:markers stroke fill" /></svg>